<svg id="visual" viewBox="0 0 900 600" width="900" height="600" xmlns="http://www.w3.org/2000/svg" xmlns:xlink="http://www.w3.org/1999/xlink" version="1.1"><path d="M0 467L21.5 468.8C43 470.7 86 474.3 128.8 477.8C171.7 481.3 214.3 484.7 257.2 486.2C300 487.7 343 487.3 385.8 489.5C428.7 491.7 471.3 496.3 514.2 492C557 487.7 600 474.3 642.8 467.8C685.7 461.3 728.3 461.7 771.2 461.2C814 460.7 857 459.3 878.5 458.7L900 458L900 601L878.5 601C857 601 814 601 771.2 601C728.3 601 685.7 601 642.8 601C600 601 557 601 514.2 601C471.3 601 428.7 601 385.8 601C343 601 300 601 257.2 601C214.3 601 171.7 601 128.8 601C86 601 43 601 21.5 601L0 601Z" fill="#2c2c2c"></path><path d="M0 485L21.5 491.8C43 498.7 86 512.3 128.8 517.7C171.7 523 214.3 520 257.2 519.5C300 519 343 521 385.8 520.3C428.7 519.7 471.3 516.3 514.2 517.2C557 518 600 523 642.8 520.7C685.7 518.3 728.3 508.7 771.2 501.5C814 494.3 857 489.7 878.5 487.3L900 485L900 601L878.5 601C857 601 814 601 771.2 601C728.3 601 685.7 601 642.8 601C600 601 557 601 514.2 601C471.3 601 428.7 601 385.8 601C343 601 300 601 257.2 601C214.3 601 171.7 601 128.8 601C86 601 43 601 21.5 601L0 601Z" fill="#62562d"></path><path d="M0 522L21.5 522C43 522 86 522 128.8 524C171.7 526 214.3 530 257.2 529C300 528 343 522 385.8 525C428.7 528 471.3 540 514.2 545.8C557 551.7 600 551.3 642.8 551.8C685.7 552.3 728.3 553.7 771.2 548.7C814 543.7 857 532.3 878.5 526.7L900 521L900 601L878.5 601C857 601 814 601 771.2 601C728.3 601 685.7 601 642.8 601C600 601 557 601 514.2 601C471.3 601 428.7 601 385.8 601C343 601 300 601 257.2 601C214.3 601 171.7 601 128.8 601C86 601 43 601 21.5 601L0 601Z" fill="#9a8526"></path><path d="M0 553L21.5 555.8C43 558.7 86 564.3 128.8 568.7C171.7 573 214.3 576 257.2 573C300 570 343 561 385.8 558.5C428.7 556 471.3 560 514.2 560.3C557 560.7 600 557.3 642.8 557.7C685.7 558 728.3 562 771.2 564C814 566 857 566 878.5 566L900 566L900 601L878.5 601C857 601 814 601 771.2 601C728.3 601 685.7 601 642.8 601C600 601 557 601 514.2 601C471.3 601 428.7 601 385.8 601C343 601 300 601 257.2 601C214.3 601 171.7 601 128.8 601C86 601 43 601 21.5 601L0 601Z" fill="#d6b600"></path></svg>