<?xml version="1.0" ?><svg viewBox="0 0 32 32" xmlns="http://www.w3.org/2000/svg"><title/><g data-name="Shooting Board" id="Shooting_Board"><path d="M28.41,8.2,7.3,2a1,1,0,0,0-.76.08,1,1,0,0,0-.48.6L4.93,6.52a1,1,0,0,0,.68,1.24L20,12H5a1,1,0,0,0-1,1V29a1,1,0,0,0,1,1H27a1,1,0,0,0,1-1V13.15l1.09-3.71A1,1,0,0,0,28.41,8.2ZM16.77,9l1.85-1.54,1.53.45L18.3,9.4ZM12.92,7.82l1.85-1.54,1.54.45L14.46,8.28ZM9.08,6.69l1.85-1.54,1.53.45L10.61,7.15ZM22.46,8.54,24,9l-1.85,1.54-1.54-.45Zm4.43,1.3-.57,1.92-1.86-.55,1.85-1.54ZM7.7,4.2l.92.27L7.29,5.58ZM26,14v1H6V14ZM6,28V17H26V28Z"/><path d="M14,25H8a1,1,0,0,0,0,2h6a1,1,0,0,0,0-2Z"/><path d="M24,22H8a1,1,0,0,0,0,2H24a1,1,0,0,0,0-2Z"/><path d="M24,25H18a1,1,0,0,0,0,2h6a1,1,0,0,0,0-2Z"/></g></svg>